<svg xmlns="http://www.w3.org/2000/svg" xmlns:xlink="http://www.w3.org/1999/xlink" contentStyleType="text/css" data-diagram-type="SEQUENCE" height="359px" preserveAspectRatio="none" style="width:393px;height:359px;background:#FFFFFF;" version="1.1" viewBox="0 0 393 359" width="393px" zoomAndPan="magnify"><defs/><g><rect fill="none" height="254.1953" style="stroke:#000000;stroke-width:1.5;" width="377.6543" x="10" y="53.2969"/><rect fill="none" height="223.0625" style="stroke:#000000;stroke-width:1.5;" width="357.6543" x="20" y="77.4297"/><rect fill="none" height="191.9297" style="stroke:#000000;stroke-width:1.5;" width="337.6543" x="30" y="101.5625"/><g><title>Controller</title><rect fill="#000000" fill-opacity="0.00000" height="288.1953" width="8" x="77.5864" y="36.2969"/><line style="stroke:#181818;stroke-width:0.5;stroke-dasharray:5.0,5.0;" x1="81" x2="81" y1="36.2969" y2="324.4922"/></g><g><title>SUT</title><rect fill="#000000" fill-opacity="0.00000" height="288.1953" width="8" x="226.9717" y="36.2969"/><line style="stroke:#181818;stroke-width:0.5;stroke-dasharray:5.0,5.0;" x1="230.1289" x2="230.1289" y1="36.2969" y2="324.4922"/></g><g><title>Otii Ace Pro</title><rect fill="#000000" fill-opacity="0.00000" height="288.1953" width="8" x="305.7344" y="36.2969"/><line style="stroke:#181818;stroke-width:0.5;stroke-dasharray:5.0,5.0;" x1="308.8145" x2="308.8145" y1="36.2969" y2="324.4922"/></g><g class="participant participant-head" data-participant="Controller"><rect fill="#E2E2F0" height="30.2969" rx="2.5" ry="2.5" style="stroke:#181818;stroke-width:0.5;" width="83.1729" x="40" y="5"/><text fill="#000000" font-family="sans-serif" font-size="14" lengthAdjust="spacing" textLength="69.1729" x="47" y="24.9951">Controller</text></g><g class="participant participant-head" data-participant="SUT"><rect fill="#E2E2F0" height="30.2969" rx="2.5" ry="2.5" style="stroke:#181818;stroke-width:0.5;" width="41.6855" x="210.1289" y="5"/><text fill="#000000" font-family="sans-serif" font-size="14" lengthAdjust="spacing" textLength="27.6855" x="217.1289" y="24.9951">SUT</text></g><g class="participant participant-head" data-participant="Otii Ace Pro"><rect fill="#E2E2F0" height="30.2969" rx="2.5" ry="2.5" style="stroke:#181818;stroke-width:0.5;" width="95.8398" x="261.8145" y="5"/><text fill="#000000" font-family="sans-serif" font-size="14" lengthAdjust="spacing" textLength="81.8398" x="268.8145" y="24.9951">Otii Ace Pro</text></g><path d="M10,53.2969 L86.624,53.2969 L86.624,60.4297 L76.624,70.4297 L10,70.4297 L10,53.2969" fill="#EEEEEE" style="stroke:#000000;stroke-width:1.5;"/><rect fill="none" height="254.1953" style="stroke:#000000;stroke-width:1.5;" width="377.6543" x="10" y="53.2969"/><text fill="#000000" font-family="sans-serif" font-size="13" font-weight="bold" lengthAdjust="spacing" textLength="31.624" x="25" y="66.3638">loop</text><text fill="#000000" font-family="sans-serif" font-size="11" font-weight="bold" lengthAdjust="spacing" textLength="233.9917" x="101.624" y="65.5073">["FreeBSD, Apline, Ubuntu, Manjaro"]</text><path d="M20,77.4297 L96.624,77.4297 L96.624,84.5625 L86.624,94.5625 L20,94.5625 L20,77.4297" fill="#EEEEEE" style="stroke:#000000;stroke-width:1.5;"/><rect fill="none" height="223.0625" style="stroke:#000000;stroke-width:1.5;" width="357.6543" x="20" y="77.4297"/><text fill="#000000" font-family="sans-serif" font-size="13" font-weight="bold" lengthAdjust="spacing" textLength="31.624" x="35" y="90.4966">loop</text><text fill="#000000" font-family="sans-serif" font-size="11" font-weight="bold" lengthAdjust="spacing" textLength="229.1362" x="111.624" y="89.6401">["Python 3.9, 3.10, 3.11, 3.12, 3.13"]</text><path d="M30,101.5625 L106.624,101.5625 L106.624,108.6953 L96.624,118.6953 L30,118.6953 L30,101.5625" fill="#EEEEEE" style="stroke:#000000;stroke-width:1.5;"/><rect fill="none" height="191.9297" style="stroke:#000000;stroke-width:1.5;" width="337.6543" x="30" y="101.5625"/><text fill="#000000" font-family="sans-serif" font-size="13" font-weight="bold" lengthAdjust="spacing" textLength="31.624" x="45" y="114.6294">loop</text><text fill="#000000" font-family="sans-serif" font-size="11" font-weight="bold" lengthAdjust="spacing" textLength="63.6904" x="121.624" y="113.7729">[10 times]</text><g class="message" data-participant-1="Controller" data-participant-2="SUT"><polygon fill="#181818" points="218.9717,135.8281,228.9717,139.8281,218.9717,143.8281,222.9717,139.8281" style="stroke:#181818;stroke-width:1;"/><line style="stroke:#181818;stroke-width:1;" x1="81.5864" x2="224.9717" y1="139.8281" y2="139.8281"/><text fill="#000000" font-family="sans-serif" font-size="13" lengthAdjust="spacing" textLength="84.1636" x="88.5864" y="134.7622">SSH Connect</text></g><g class="message" data-participant-1="Controller" data-participant-2="Otii Ace Pro"><polygon fill="#181818" points="297.7344,164.9609,307.7344,168.9609,297.7344,172.9609,301.7344,168.9609" style="stroke:#181818;stroke-width:1;"/><line style="stroke:#181818;stroke-width:1;" x1="81.5864" x2="303.7344" y1="168.9609" y2="168.9609"/><text fill="#000000" font-family="sans-serif" font-size="13" lengthAdjust="spacing" textLength="126.3691" x="88.5864" y="163.895">Record power draw</text></g><g class="message" data-participant-1="Controller" data-participant-2="SUT"><polygon fill="#181818" points="218.9717,194.0938,228.9717,198.0938,218.9717,202.0938,222.9717,198.0938" style="stroke:#181818;stroke-width:1;"/><line style="stroke:#181818;stroke-width:1;" x1="81.5864" x2="224.9717" y1="198.0938" y2="198.0938"/><text fill="#000000" font-family="sans-serif" font-size="13" lengthAdjust="spacing" textLength="125.3853" x="88.5864" y="193.0278">pyperformance run</text></g><g class="message" data-participant-1="SUT" data-participant-2="Controller"><polygon fill="#181818" points="92.5864,223.2266,82.5864,227.2266,92.5864,231.2266,88.5864,227.2266" style="stroke:#181818;stroke-width:1;"/><line style="stroke:#181818;stroke-width:1;stroke-dasharray:2.0,2.0;" x1="86.5864" x2="229.9717" y1="227.2266" y2="227.2266"/><text fill="#000000" font-family="sans-serif" font-size="13" lengthAdjust="spacing" textLength="42.8149" x="98.5864" y="222.1606">exit(0)</text></g><g class="message" data-participant-1="Otii Ace Pro" data-participant-2="Controller"><polygon fill="#181818" points="92.5864,252.3594,82.5864,256.3594,92.5864,260.3594,88.5864,256.3594" style="stroke:#181818;stroke-width:1;"/><line style="stroke:#181818;stroke-width:1;stroke-dasharray:2.0,2.0;" x1="86.5864" x2="308.7344" y1="256.3594" y2="256.3594"/><text fill="#000000" font-family="sans-serif" font-size="13" lengthAdjust="spacing" textLength="130.3809" x="98.5864" y="251.2935">Power draw CSV file</text></g><g class="message" data-participant-1="SUT" data-participant-2="Controller"><polygon fill="#181818" points="92.5864,281.4922,82.5864,285.4922,92.5864,289.4922,88.5864,285.4922" style="stroke:#181818;stroke-width:1;"/><line style="stroke:#181818;stroke-width:1;stroke-dasharray:2.0,2.0;" x1="86.5864" x2="229.9717" y1="285.4922" y2="285.4922"/><text fill="#000000" font-family="sans-serif" font-size="13" lengthAdjust="spacing" textLength="102.6289" x="98.5864" y="280.4263">SSH Disconnect</text></g><!--SRC=[TOz1IyD048Nl_HMFd1HIIUp978IqGRo8mRNUOpB5bStCCjrG- -_ThjeYse5vXtdVp6ESY4TsfqHBq-IelRDCETQl4uSfnqF7xvrADdE9Q_VXJHYBgviyIbaaBPDU9rra-4BB0i6Ej9qXraeug3X7YlajpFgvWZ7tXp5J7_v1iiTWBUgUqCRm2a_KYmxmiel-eDtkt5c_zwGRqR7ZkAmJ9p1Qc4Vaj521FcouA2wJ_plk3zeUOx4oBzXOHsVF7lvgxBR_Veru-EbF]--></g></svg>